# Blender v2.74 (sub 0) OBJ File: 'mushroom.blend'
# www.blender.org
mtllib mushroom.mtl
o Mesh1_Mushroom_Red_Model
v -0.687368 -0.660585 -4.495467
v -0.471336 -0.444548 -2.734681
v -0.471336 0.432685 -2.734681
v -0.687368 0.648717 -4.495467
v 0.621935 -0.660585 -4.495467
v 0.405897 -0.444548 -2.734681
v 0.621935 0.648717 -4.495467
v 0.405897 0.432685 -2.734681
v 0.737191 -1.205308 -2.734681
v 1.436991 0.006780 -2.734681
v -0.662408 1.218869 -2.734681
v 0.737191 1.218869 -2.734681
v 0.037391 0.006780 -1.335082
v -1.362208 0.006780 -2.734681
v -0.662408 -1.205308 -2.734681
vt -0.135651 0.144188
vt -0.135651 0.072650
vt -0.064113 0.072650
vt -0.064113 0.144188
vt -0.197690 0.171205
vt -0.098845 0.228273
vt 0.000000 0.057068
vt 0.000000 0.171205
vt -0.057068 0.108545
vt -0.114136 0.259533
vt -0.171205 0.108545
vt 0.085602 0.140899
vt 0.028534 0.291887
vt -0.028534 0.140899
vt 0.199739 0.076190
vt 0.142670 0.227178
vt 0.085602 0.076190
vt 0.114136 0.130114
vt 0.057068 -0.020874
vt 0.171205 -0.020874
vt -0.197690 0.057068
vt -0.098845 0.000000
vt 0.028534 -0.053229
vt -0.028534 0.097760
vt -0.085602 -0.053229
vt -0.085602 0.011481
vt -0.142670 0.162469
vt -0.199739 0.011481
vt 13.275200 0.580472
vt 11.749300 13.110700
vt 5.553080 13.110700
vt 4.027150 0.580472
vt 4.766600 -1.616640
vt 14.014600 -1.616640
vt 12.488700 10.913600
vt 6.292520 10.913600
vt -13.275200 14.014600
vt -13.275200 4.766600
vt -4.027150 4.766600
vt -4.027150 14.014600
vt -6.292520 13.020700
vt -12.488700 13.020700
vt -14.014600 0.490423
vt -4.766600 0.490423
vt -4.027150 -1.706690
vt -5.553080 10.823600
vt -11.749300 10.823600
vt -13.275200 -1.706690
vn 0.000000 0.000000 -1.000000
vn 0.000000 0.755900 0.654700
vn -0.654700 0.378000 0.654700
vn -0.654700 -0.378000 0.654700
vn 0.000000 -0.755900 0.654700
vn 0.654700 -0.378000 0.654700
vn 0.654700 0.378000 0.654700
vn -0.992600 0.000000 0.121800
vn 0.000000 -0.992600 0.121800
vn 0.000000 0.992600 0.121800
vn 0.992600 0.000000 0.121800
g Mesh1_Mushroom_Red_Model_Mesh1_Mushroom_Red_Model_Mushroom_Red
usemtl Mushroom_Red
s 1
f 6/1/1 2/2/1 3/3/1 8/4/1
f 6/1/1 9/5/1 2/2/1
f 6/1/1 10/6/1 9/5/1
f 8/4/1 10/6/1 6/1/1
f 11/7/1 10/6/1 8/4/1
f 10/6/1 11/7/1 12/8/1
f 11/9/2 13/10/2 12/11/2
f 14/12/3 13/13/3 11/14/3
f 15/15/4 13/16/4 14/17/4
f 13/18/5 15/19/5 9/20/5
f 15/21/1 2/2/1 9/5/1
f 14/22/1 2/2/1 15/21/1
f 14/22/1 3/3/1 2/2/1
f 11/7/1 3/3/1 14/22/1
f 3/3/1 11/7/1 8/4/1
f 10/23/6 13/24/6 9/25/6
f 12/26/7 13/27/7 10/28/7
g Mesh1_Mushroom_Red_Model_Mesh1_Mushroom_Red_Model_FrontColor
usemtl FrontColor
f 1/29/8 2/30/8 3/31/8 4/32/8
f 1/33/9 5/34/9 6/35/9 2/36/9
f 5/37/1 1/38/1 4/39/1 7/40/1
f 3/41/10 8/42/10 7/43/10 4/44/10
f 7/45/11 8/46/11 6/47/11 5/48/11
