# Blender v2.74 (sub 0) OBJ File: 'stump.blend'
# www.blender.org
mtllib stump.mtl
o Mesh1_Trunk_Model
v -1.919188 -1.919191 -5.356967
v 1.919191 -1.919191 -5.356966
v 1.432231 -1.432231 -4.258499
v -1.432228 -1.432231 -4.258500
v -1.919188 1.919188 -5.356967
v 1.919191 1.919188 -5.356966
v -1.432228 1.432228 -4.258500
v 1.432231 1.432228 -4.258499
v -1.136693 1.136693 -1.392933
v 1.136690 1.136693 -1.392932
v -0.664739 0.664738 -1.392933
v -1.136693 -1.136690 -1.392933
v 1.136690 -1.136690 -1.392932
v 0.664736 0.664738 -1.392933
v -0.664738 0.664738 -4.258500
v 0.664737 0.664738 -4.258499
v -0.664739 -0.664736 -1.392933
v -0.664738 -0.664736 -4.258500
v 0.664736 -0.664736 -1.392933
v 0.664737 -0.664736 -4.258499
vt 0.000000 -0.148051
vt 0.365313 -0.148051
vt 0.318968 -0.033693
vt 0.046346 -0.033693
vt 0.000000 0.000000
vt 0.000000 0.365313
vt -0.365313 0.365313
vt -0.365313 0.000000
vt -0.046346 0.114358
vt -0.318968 0.114358
vt -0.074473 0.382922
vt -0.290840 0.382922
vt -0.318968 0.108748
vt -0.046346 0.108748
vt 0.318968 0.108748
vt 0.290840 0.382922
vt 0.074473 0.382922
vt 0.046346 0.108748
vt 0.046346 0.071271
vt 0.318968 0.071271
vt 0.290840 0.345445
vt 0.074473 0.345445
vt -0.046346 0.071271
vt -0.074473 0.345445
vt -0.290840 0.345445
vt -0.318968 0.071271
vt 0.245922 0.377273
vt 0.119391 0.377273
vt 0.119391 0.104545
vt 0.245922 0.104545
vt -0.119391 0.377273
vt -0.245922 0.377273
vt -0.245922 0.104545
vt -0.119391 0.104545
vt 0.245922 0.245922
vt 0.119391 0.245922
vt 0.119391 0.119391
vt 0.245922 0.119391
vt -0.046346 -0.033693
vt -0.318968 -0.033693
vt -0.365313 -0.148051
vt 0.365313 -0.000000
vt 0.318968 0.114358
vt 0.046346 0.114358
vt 0.074473 0.074473
vt 0.074473 0.290840
vt 0.290840 0.074473
vt 0.290840 0.290840
vn -0.000000 -0.914200 0.405300
vn 0.000000 -0.966400 0.257100
vn 0.000000 0.000000 -1.000000
vn -0.000000 0.966400 0.257100
vn -0.000000 0.914200 0.405300
vn -0.000000 0.994700 0.102600
vn -0.966400 -0.000000 0.257100
vn -0.994700 0.000000 0.102600
vn -0.000000 -0.994700 0.102600
vn 0.966400 0.000000 0.257100
vn 0.994700 0.000000 0.102600
vn 0.000000 -1.000000 0.000000
vn 1.000000 0.000000 0.000000
vn -1.000000 0.000000 -0.000000
vn -0.000000 0.000000 1.000000
vn 0.000000 1.000000 0.000000
vn 0.914200 0.000000 0.405300
vn -0.914200 0.000000 0.405300
g Mesh1_Trunk_Model_Mesh1_Trunk_Model_Wood
usemtl Wood
s 1
f 1/1/1 2/2/1 3/3/2 4/4/2
f 5/5/3 6/6/3 2/7/3 1/8/3
f 7/9/4 8/10/4 6/8/5 5/5/5
f 9/11/6 10/12/6 8/13/4 7/14/4
f 4/15/7 12/16/8 9/17/8 7/18/7
f 4/19/2 3/20/2 13/21/9 12/22/9
f 8/23/10 10/24/11 13/25/11 3/26/10
f 14/27/12 11/28/12 15/29/12 16/30/12
f 11/31/13 17/32/13 18/33/13 15/34/13
f 19/27/14 14/28/14 16/29/14 20/30/14
f 20/35/15 16/36/15 15/37/15 18/38/15
f 17/31/16 19/32/16 20/33/16 18/34/16
f 6/1/17 8/39/10 3/40/10 2/41/17
f 1/42/18 4/43/7 7/44/7 5/5/18
g Mesh1_Trunk_Model_Mesh1_Trunk_Model_Light_Wood
usemtl Light_Wood
f 9/45/15 11/37/15 10/46/15
f 11/37/15 9/45/15 12/47/15
f 10/46/15 14/36/15 13/48/15
f 14/36/15 10/46/15 11/37/15
f 11/37/15 12/47/15 17/38/15
f 17/38/15 12/47/15 19/35/15
f 13/48/15 19/35/15 12/47/15
f 13/48/15 14/36/15 19/35/15
