# Blender v2.74 (sub 0) OBJ File: ''
# www.blender.org
mtllib stump.mtl
o Mesh1_Trunk_Model
v -2.046768 -1.848051 0.000000
v 1.710890 -1.848051 0.000001
v 1.234170 -1.371332 1.075367
v -1.570049 -1.371332 1.075367
v -2.046768 1.909607 0.000000
v 1.710890 1.909607 0.000001
v -1.570049 1.432888 1.075367
v 1.234170 1.432888 1.075367
v -1.280729 1.143567 3.880671
v 0.944845 1.143567 3.880671
v -0.818700 0.681538 3.880671
v -1.280729 -1.082007 3.880671
v 0.944845 -1.082007 3.880671
v 0.482816 0.681538 3.880671
v -0.818700 0.681538 1.075367
v 0.482816 0.681538 1.075367
v -0.818700 -0.619978 3.880671
v -0.818700 -0.619978 1.075367
v 0.482816 -0.619978 3.880671
v 0.482816 -0.619978 1.075367
vt 0.074473 0.074473
vt 0.119391 0.119391
vt 0.074473 0.290840
vt 0.290840 0.074473
vt 0.119391 0.245922
vt 0.290840 0.290840
vt 0.245922 0.119391
vt 0.245922 0.245922
vt 0.000000 -0.148051
vt 0.365313 -0.148051
vt 0.318968 -0.033693
vt 0.046346 -0.033693
vt 0.000000 0.000000
vt 0.000000 0.365313
vt -0.365313 0.365313
vt -0.365313 0.000000
vt -0.046346 0.114358
vt -0.318968 0.114358
vt -0.074473 0.382922
vt -0.290840 0.382922
vt -0.318968 0.108748
vt -0.046346 0.108748
vt 0.318968 0.108748
vt 0.290840 0.382922
vt 0.074473 0.382922
vt 0.046346 0.108748
vt 0.046346 0.071271
vt 0.318968 0.071271
vt 0.290840 0.345445
vt 0.074473 0.345445
vt -0.046346 0.071271
vt -0.074473 0.345445
vt -0.290840 0.345445
vt -0.318968 0.071271
vt 0.245922 0.377273
vt 0.119391 0.377273
vt 0.119391 0.104545
vt 0.245922 0.104545
vt -0.119391 0.377273
vt -0.245922 0.377273
vt -0.245922 0.104545
vt -0.119391 0.104545
vt -0.046346 -0.033693
vt -0.318968 -0.033693
vt -0.365313 -0.148051
vt 0.365313 -0.000000
vt 0.318968 0.114358
vt 0.046346 0.114358
vn 0.000000 -0.000000 1.000000
vn -0.000000 -0.914200 0.405300
vn 0.000000 -0.966400 0.257100
vn 0.000000 0.000000 -1.000000
vn -0.000000 0.966400 0.257100
vn -0.000000 0.914200 0.405300
vn -0.000000 0.994700 0.102600
vn -0.966400 -0.000000 0.257100
vn -0.994700 0.000000 0.102600
vn -0.000000 -0.994700 0.102600
vn 0.966400 0.000000 0.257100
vn 0.994700 0.000000 0.102600
vn 0.000000 -1.000000 0.000000
vn 1.000000 0.000000 0.000000
vn -1.000000 0.000000 -0.000000
vn 0.000000 1.000000 0.000000
vn 0.914200 0.000000 0.405300
vn -0.914200 0.000000 0.405300
g Mesh1_Trunk_Model_Mesh1_Trunk_Model_Light_Wood
usemtl Light_Wood
s 1
f 9/1/1 11/2/1 10/3/1
f 11/2/1 9/1/1 12/4/1
f 10/3/1 14/5/1 13/6/1
f 14/5/1 10/3/1 11/2/1
f 11/2/1 12/4/1 17/7/1
f 17/7/1 12/4/1 19/8/1
f 13/6/1 19/8/1 12/4/1
f 13/6/1 14/5/1 19/8/1
g Mesh1_Trunk_Model_Mesh1_Trunk_Model_Wood
usemtl Wood
f 1/9/2 2/10/2 3/11/3 4/12/3
f 5/13/4 6/14/4 2/15/4 1/16/4
f 7/17/5 8/18/5 6/16/6 5/13/6
f 9/19/7 10/20/7 8/21/5 7/22/5
f 4/23/8 12/24/9 9/25/9 7/26/8
f 4/27/3 3/28/3 13/29/10 12/30/10
f 8/31/11 10/32/12 13/33/12 3/34/11
f 14/35/13 11/36/13 15/37/13 16/38/13
f 11/39/14 17/40/14 18/41/14 15/42/14
f 19/35/15 14/36/15 16/37/15 20/38/15
f 20/8/1 16/5/1 15/2/1 18/7/1
f 17/39/16 19/40/16 20/41/16 18/42/16
f 6/9/17 8/43/11 3/44/11 2/45/17
f 1/46/18 4/47/8 7/48/8 5/13/18
