# Blender v2.74 (sub 0) OBJ File: 'boulder2.blend'
# www.blender.org
mtllib boulder2.mtl
o rockLP001.002
v -1.037833 8.376409 6.137384
v 0.068611 8.023311 7.761989
v 1.256006 7.804586 6.264676
v -0.122618 7.972771 4.590895
v 2.666555 6.840771 4.227048
v 1.372875 7.314955 3.075938
v 4.152410 5.415185 2.311529
v 2.340272 6.074391 1.290544
v 4.786386 3.741295 0.916331
v 3.060197 4.626800 0.121377
v 5.181893 2.307235 0.038026
v 3.687487 3.472535 -0.579463
v 1.185009 6.950192 9.410825
v 2.702122 6.724876 8.372371
v 4.647594 5.979143 6.365512
v 6.204746 4.144632 4.206274
v 6.726481 2.314205 2.348015
v 6.689347 0.683339 1.063314
v 2.103569 5.408776 11.014669
v 4.274607 5.214504 10.332141
v 6.209100 3.979399 8.460296
v 7.801416 2.218156 6.272379
v 8.235723 0.776615 4.235580
v 7.801432 -0.679452 2.742172
v 2.809237 3.934704 12.052470
v 4.812107 3.259064 11.522967
v 6.937046 2.264538 10.063308
v 8.038160 0.467070 8.099417
v 8.329916 -0.771063 6.045215
v 7.847103 -1.768744 4.454909
v 2.992569 2.592241 12.611482
v 5.132470 1.626885 11.957604
v 6.600122 0.493514 10.722140
v 7.379431 -1.118953 9.108164
v 7.819632 -1.892279 7.381133
v 7.746016 -2.522726 5.843782
v -8.830551 2.678344 5.025400
v -8.948528 1.693817 3.669731
v -9.049673 0.565835 4.818530
v -8.689474 1.780371 6.204161
v -8.130026 0.648158 1.964692
v -8.821394 -1.115092 2.813549
v -7.097788 -0.618087 0.220161
v -7.394914 -2.562306 0.925168
v -5.788291 -1.740640 -0.860971
v -5.406325 -3.659091 -0.458676
v -3.825235 -2.519268 -1.630180
v -3.360467 -4.357015 -1.027523
v -8.671341 -1.154062 6.504104
v -8.322863 0.387652 7.792409
v -8.795477 -2.970772 4.519551
v -6.986408 -4.823588 2.565320
v -4.558823 -5.861364 0.846328
v -2.704200 -6.328379 -0.023224
v -7.314146 -2.811426 8.368189
v -7.520288 -1.103961 9.390895
v -6.998310 -4.978178 6.521420
v -5.254916 -6.885995 4.443962
v -3.188245 -7.396544 2.736468
v -1.704951 -7.616177 1.677792
v -5.337262 -4.012093 10.017331
v -5.903033 -2.335375 10.623661
v -4.416578 -6.066100 8.598896
v -3.392311 -7.664714 6.398644
v -1.813247 -8.270989 4.587868
v -0.678096 -8.422383 3.298207
v -3.525524 -4.865656 10.726296
v -4.453929 -3.364818 11.456788
v -2.526636 -6.577301 9.559775
v -1.923694 -7.914494 7.619696
v -0.677844 -8.510115 5.989193
v 0.358065 -8.596706 4.726375
v -2.223152 7.766273 3.839947
v -2.893865 7.636717 5.927207
v -0.491344 7.422052 1.887595
v 0.744215 5.697928 -0.063587
v 1.964532 3.989327 -1.398756
v 2.627193 2.366056 -1.818123
v -4.605924 7.180315 3.796758
v -5.406190 7.385100 5.711633
v -3.563068 6.942047 0.802297
v -1.978458 4.644000 -0.894018
v -0.239863 3.153637 -2.026172
v 0.881275 1.161357 -2.298991
v -7.129909 5.956649 3.644455
v -7.419000 6.193057 5.448626
v -6.164514 5.072004 1.025239
v -4.695106 2.940706 -0.994274
v -2.528241 1.428932 -2.008725
v -1.030393 -0.204198 -2.125619
v -8.523499 3.419204 3.485042
v -8.355791 4.089544 5.187457
v -7.386637 2.554207 1.338524
v -6.158788 0.893908 -0.653750
v -4.341675 -0.373591 -1.807241
v -2.636935 -1.428108 -2.151381
v 4.287787 1.216743 -0.754459
v 5.735272 -0.622708 0.326519
v 7.020381 -2.423277 2.118336
v 7.080520 -3.830521 4.205839
v 7.019754 -4.409518 5.618716
v 2.403973 -0.241130 -1.958724
v 3.844964 -2.283026 -0.413748
v 5.200473 -4.808465 1.229115
v 5.609863 -6.002994 3.711084
v 5.679629 -6.371792 5.338032
v 0.219130 -2.097897 -2.003809
v 1.485269 -4.380435 -1.026506
v 2.736413 -6.742815 0.760532
v 3.546589 -7.948267 3.422235
v 4.041945 -8.018273 5.063774
v -1.675458 -3.420158 -1.908519
v -1.025832 -5.577968 -0.947167
v 0.135453 -7.301868 0.932035
v 1.026463 -8.429379 3.102833
v 2.007540 -8.522691 4.859900
v 7.235555 -3.746376 7.189745
v 6.585956 -2.846664 9.480043
v 5.396203 -1.075438 11.548644
v 3.621173 0.514713 12.573546
v 1.791367 1.327935 13.322026
v 5.799626 -5.906376 7.053974
v 4.876259 -5.257894 9.525073
v 3.434867 -2.890431 11.358245
v 1.854103 -1.246549 13.131593
v 0.183561 0.026824 13.581745
v 3.785158 -7.877767 6.580763
v 2.411978 -7.311075 9.283895
v 1.158579 -5.265152 11.308741
v -0.253037 -3.017053 12.359532
v -1.857243 -1.034716 12.852386
v 1.228263 -8.402647 6.490580
v -0.160919 -7.884733 8.639394
v -1.321564 -6.081857 10.430228
v -2.314169 -4.206235 11.729905
v -3.267630 -2.588240 12.129029
v 1.011791 2.898681 13.138268
v 0.133778 4.913963 12.122398
v -0.901120 6.853476 10.194400
v -1.927870 7.873766 8.213312
v -1.174261 1.785568 13.444887
v -2.420927 3.883269 12.360888
v -3.950618 6.374725 10.722516
v -4.488419 7.157340 7.722486
v -3.572821 0.398667 12.697572
v -5.062009 2.194970 11.520727
v -6.460566 4.580102 9.729265
v -7.086423 5.882909 7.248617
v -5.033419 -1.515070 11.834372
v -6.835639 0.307892 10.646904
v -7.786721 2.144930 8.775740
v -8.160961 3.600292 6.767855
vt 0.045247 0.360666
vt 0.094308 0.353973
vt 0.085890 0.400374
vt 0.033051 0.405059
vt 0.075346 0.464791
vt 0.032057 0.461941
vt 0.076653 0.534041
vt 0.025000 0.524407
vt 0.080120 0.589916
vt 0.030420 0.577342
vt 0.087470 0.632014
vt 0.041662 0.613822
vt 0.151542 0.350117
vt 0.152914 0.394915
vt 0.146926 0.463356
vt 0.148705 0.539252
vt 0.146472 0.601997
vt 0.145033 0.652259
vt 0.215289 0.348970
vt 0.222545 0.402721
vt 0.223093 0.471517
vt 0.223945 0.546043
vt 0.214136 0.603102
vt 0.207589 0.653285
vt 0.266865 0.358551
vt 0.278187 0.410413
vt 0.279876 0.475161
vt 0.282665 0.542031
vt 0.270126 0.597932
vt 0.259965 0.643905
vt 0.304368 0.364444
vt 0.318148 0.424123
vt 0.324931 0.481758
vt 0.330210 0.544622
vt 0.313780 0.592297
vt 0.298218 0.631385
vt 0.360347 0.633676
vt 0.356164 0.591960
vt 0.394930 0.596798
vt 0.396655 0.642408
vt 0.345201 0.536828
vt 0.393568 0.534363
vt 0.346197 0.472539
vt 0.396015 0.468875
vt 0.359177 0.419954
vt 0.406186 0.406491
vt 0.372214 0.364450
vt 0.421818 0.354410
vt 0.453779 0.602421
vt 0.451337 0.650601
vt 0.448979 0.542075
vt 0.461268 0.470315
vt 0.471056 0.397984
vt 0.482124 0.348970
vt 0.522222 0.605398
vt 0.512184 0.652678
vt 0.524013 0.538203
vt 0.535507 0.462562
vt 0.538785 0.399555
vt 0.543465 0.355898
vt 0.590779 0.603577
vt 0.573103 0.646141
vt 0.604930 0.539835
vt 0.599713 0.468932
vt 0.598078 0.408798
vt 0.595306 0.366702
vt 0.641200 0.591318
vt 0.620859 0.634726
vt 0.656820 0.533712
vt 0.645547 0.470715
vt 0.642042 0.415864
vt 0.638519 0.375166
vt 0.632972 0.045004
vt 0.640802 0.090773
vt 0.586365 0.089463
vt 0.583856 0.036038
vt 0.660122 0.147173
vt 0.607934 0.149754
vt 0.655127 0.211173
vt 0.604185 0.219394
vt 0.646308 0.263111
vt 0.600965 0.278954
vt 0.641728 0.300496
vt 0.596897 0.322347
vt 0.528916 0.074173
vt 0.520324 0.025000
vt 0.534456 0.146142
vt 0.531816 0.219172
vt 0.543092 0.276374
vt 0.540257 0.331588
vt 0.461865 0.071115
vt 0.459778 0.027845
vt 0.464758 0.138366
vt 0.456630 0.213981
vt 0.473956 0.278249
vt 0.477223 0.332062
vt 0.395092 0.089680
vt 0.403667 0.045771
vt 0.401360 0.151387
vt 0.398386 0.220635
vt 0.411659 0.279371
vt 0.423471 0.327507
vt 0.353020 0.098806
vt 0.368710 0.058918
vt 0.349948 0.155269
vt 0.351057 0.217787
vt 0.358370 0.269997
vt 0.380335 0.321953
vt 0.692670 0.362290
vt 0.741363 0.356398
vt 0.738340 0.396010
vt 0.684373 0.410680
vt 0.802101 0.353581
vt 0.800630 0.396587
vt 0.864487 0.348970
vt 0.869230 0.397021
vt 0.916679 0.357128
vt 0.929021 0.409898
vt 0.956116 0.364400
vt 0.966223 0.413727
vt 0.724104 0.459264
vt 0.674377 0.465028
vt 0.792965 0.458924
vt 0.869219 0.469990
vt 0.934349 0.473834
vt 0.974436 0.473118
vt 0.726997 0.528674
vt 0.671811 0.526653
vt 0.792127 0.535448
vt 0.865674 0.542084
vt 0.935480 0.541839
vt 0.975000 0.533275
vt 0.730041 0.584936
vt 0.676315 0.579750
vt 0.786045 0.600797
vt 0.852653 0.601900
vt 0.915356 0.600587
vt 0.962415 0.586162
vt 0.735013 0.636721
vt 0.687438 0.621579
vt 0.792705 0.649991
vt 0.853574 0.650162
vt 0.906594 0.641328
vt 0.948648 0.625686
vt 0.287296 0.962914
vt 0.245174 0.967555
vt 0.264560 0.924030
vt 0.305781 0.915544
vt 0.194390 0.964485
vt 0.203316 0.918595
vt 0.132865 0.967671
vt 0.132661 0.916180
vt 0.079900 0.952006
vt 0.072214 0.903925
vt 0.025384 0.926993
vt 0.025587 0.879882
vt 0.280362 0.863686
vt 0.322635 0.857565
vt 0.218200 0.851177
vt 0.140454 0.853769
vt 0.073868 0.842137
vt 0.025000 0.826024
vt 0.295968 0.797020
vt 0.332290 0.798703
vt 0.227009 0.778128
vt 0.155589 0.777471
vt 0.089329 0.774643
vt 0.027015 0.762983
vt 0.284987 0.734702
vt 0.328009 0.745200
vt 0.224677 0.716066
vt 0.157434 0.711858
vt 0.097236 0.714581
vt 0.050646 0.710397
vt 0.283938 0.686383
vt 0.321229 0.704293
vt 0.231108 0.668277
vt 0.167944 0.675266
vt 0.108729 0.674224
vt 0.060773 0.672009
vt 0.042340 0.299054
vt 0.030252 0.263871
vt 0.086082 0.277186
vt 0.085297 0.319907
vt 0.025000 0.213321
vt 0.080284 0.219618
vt 0.025360 0.149282
vt 0.078496 0.149296
vt 0.039604 0.091190
vt 0.088914 0.091241
vt 0.059005 0.044747
vt 0.108005 0.033888
vt 0.145516 0.281313
vt 0.138825 0.333978
vt 0.144996 0.219968
vt 0.148033 0.144990
vt 0.151528 0.074053
vt 0.172245 0.025000
vt 0.214094 0.274412
vt 0.203285 0.327709
vt 0.220930 0.213398
vt 0.218605 0.136882
vt 0.221477 0.070861
vt 0.232656 0.028739
vt 0.275266 0.282173
vt 0.262543 0.331214
vt 0.284737 0.215153
vt 0.285163 0.148395
vt 0.280677 0.087534
vt 0.287792 0.047552
vt 0.315936 0.274569
vt 0.301254 0.321349
vt 0.332826 0.215204
vt 0.334956 0.153502
vt 0.327750 0.097783
vt 0.322315 0.060363
vn 0.011000 0.997000 -0.076400
vn 0.241000 0.941700 0.234800
vn 0.426600 0.904200 0.022400
vn 0.097500 0.964300 -0.246200
vn 0.493400 0.857800 -0.143900
vn 0.299300 0.904300 -0.304300
vn 0.591400 0.731300 -0.339700
vn 0.444800 0.766600 -0.463100
vn 0.638800 0.601800 -0.479400
vn 0.489100 0.659200 -0.571100
vn 0.637300 0.391400 -0.663800
vn 0.545400 0.534700 -0.645400
vn 0.308400 0.828700 0.467100
vn 0.511500 0.825000 0.240300
vn 0.620200 0.784300 0.017600
vn 0.741900 0.641600 -0.194700
vn 0.794400 0.472200 -0.382000
vn 0.768400 0.183100 -0.613200
vn 0.256700 0.702900 0.663300
vn 0.520700 0.703700 0.483400
vn 0.741800 0.632200 0.223700
vn 0.883200 0.468800 0.013000
vn 0.955300 0.223700 -0.193100
vn 0.919400 -0.085100 -0.384000
vn 0.224200 0.518600 0.825100
vn 0.524300 0.475900 0.706100
vn 0.807000 0.347800 0.477200
vn 0.955300 0.136200 0.262600
vn 0.988000 -0.148300 0.042300
vn 0.943100 -0.306000 -0.130100
vn 0.273000 0.297500 0.914900
vn 0.498200 0.189700 0.846100
vn 0.747700 0.010600 0.663900
vn 0.880500 -0.190100 0.434300
vn 0.923600 -0.336000 0.184400
vn 0.926200 -0.377100 -0.005300
vn -0.980600 0.176200 0.086300
vn -0.978600 0.059800 -0.196700
vn -0.994200 -0.105700 0.019000
vn -0.975400 0.088300 0.202100
vn -0.867700 0.028200 -0.496300
vn -0.934400 -0.180500 -0.307200
vn -0.742100 -0.016500 -0.670100
vn -0.791600 -0.246000 -0.559300
vn -0.525300 -0.197300 -0.827800
vn -0.567800 -0.388000 -0.726000
vn -0.335300 -0.250800 -0.908100
vn -0.320600 -0.385700 -0.865100
vn -0.955600 -0.149400 0.253900
vn -0.940300 0.016900 0.340000
vn -0.912900 -0.408100 -0.003600
vn -0.727900 -0.601000 -0.330100
vn -0.515800 -0.690200 -0.507600
vn -0.266500 -0.676700 -0.686300
vn -0.826700 -0.344400 0.444900
vn -0.828900 -0.192300 0.525300
vn -0.747800 -0.602500 0.278800
vn -0.557200 -0.829200 -0.045200
vn -0.393500 -0.881900 -0.259700
vn -0.193100 -0.874800 -0.444300
vn -0.661600 -0.503900 0.555300
vn -0.619400 -0.357700 0.698800
vn -0.562100 -0.701600 0.438000
vn -0.391900 -0.903300 0.174800
vn -0.256800 -0.964600 -0.059200
vn -0.128500 -0.973000 -0.192000
vn -0.474600 -0.549200 0.687800
vn -0.477700 -0.398100 0.783200
vn -0.385300 -0.723000 0.573400
vn -0.256000 -0.907000 0.334400
vn -0.097800 -0.990200 0.099600
vn -0.047000 -0.998900 0.003800
vn -0.148600 0.948400 -0.280100
vn -0.180000 0.983100 -0.034200
vn 0.060800 0.889900 -0.452100
vn 0.201100 0.750900 -0.629000
vn 0.260200 0.582400 -0.770200
vn 0.429900 0.274000 -0.860300
vn -0.306000 0.928500 -0.210300
vn -0.337000 0.941400 0.017500
vn -0.239200 0.798700 -0.552100
vn -0.123000 0.566700 -0.814700
vn -0.038200 0.367100 -0.929400
vn 0.136900 -0.006400 -0.990600
vn -0.667200 0.682700 -0.298000
vn -0.739400 0.673100 0.015500
vn -0.596100 0.529600 -0.603500
vn -0.407900 0.289400 -0.866000
vn -0.193400 0.150700 -0.969500
vn -0.021000 -0.037100 -0.999100
vn -0.887700 0.346600 -0.303200
vn -0.939200 0.340200 0.047400
vn -0.782000 0.242500 -0.574100
vn -0.616900 0.089300 -0.782000
vn -0.355200 -0.070900 -0.932100
vn -0.155300 -0.135400 -0.978500
vn 0.548500 0.028200 -0.835700
vn 0.635000 -0.122800 -0.762700
vn 0.789100 -0.342200 -0.510200
vn 0.880000 -0.420700 -0.220300
vn 0.889600 -0.456600 -0.014000
vn 0.350700 -0.220900 -0.910100
vn 0.498500 -0.267100 -0.824700
vn 0.641900 -0.461400 -0.612500
vn 0.743400 -0.603200 -0.288900
vn 0.769300 -0.638400 -0.023600
vn 0.155100 -0.235900 -0.959300
vn 0.306400 -0.380200 -0.872700
vn 0.388600 -0.626900 -0.675300
vn 0.434400 -0.847600 -0.304800
vn 0.473700 -0.880700 -0.004700
vn -0.053700 -0.260000 -0.964100
vn 0.038400 -0.520800 -0.852800
vn 0.081400 -0.782300 -0.617600
vn 0.081700 -0.959800 -0.268400
vn 0.114400 -0.993300 0.017600
vn 0.853800 -0.451700 0.258800
vn 0.762100 -0.374900 0.528000
vn 0.572100 -0.267500 0.775300
vn 0.389400 -0.096500 0.916000
vn 0.217100 0.142100 0.965800
vn 0.720000 -0.635800 0.278100
vn 0.579000 -0.542500 0.608600
vn 0.394900 -0.416400 0.819000
vn 0.252900 -0.308800 0.916900
vn 0.026300 -0.110900 0.993500
vn 0.439300 -0.862500 0.251300
vn 0.282400 -0.751000 0.596800
vn 0.149500 -0.543100 0.826300
vn 0.040700 -0.416000 0.908500
vn -0.167200 -0.259400 0.951200
vn 0.111100 -0.976200 0.186400
vn -0.040600 -0.883200 0.467200
vn -0.187000 -0.662100 0.725800
vn -0.235100 -0.481100 0.844600
vn -0.279100 -0.316800 0.906500
vn 0.052300 0.398900 0.915500
vn 0.003200 0.620400 0.784300
vn 0.015300 0.803200 0.595500
vn -0.054400 0.949800 0.308100
vn -0.184900 0.166500 0.968600
vn -0.289700 0.400300 0.869400
vn -0.357600 0.679200 0.641000
vn -0.370700 0.883300 0.287000
vn -0.384300 -0.014500 0.923100
vn -0.511500 0.197300 0.836300
vn -0.678600 0.407900 0.610800
vn -0.745700 0.585000 0.319000
vn -0.477000 -0.175200 0.861300
vn -0.712100 0.011900 0.702000
vn -0.854400 0.177800 0.488200
vn -0.925200 0.264700 0.271800
g rockLP001.002_rockLP001.002_wire_115115115
usemtl wire_115115115
s 1
f 1/1/1 2/2/2 3/3/3 4/4/4
f 4/4/4 3/3/3 5/5/5 6/6/6
f 6/6/6 5/5/5 7/7/7 8/8/8
f 8/8/8 7/7/7 9/9/9 10/10/10
f 10/10/10 9/9/9 11/11/11 12/12/12
f 2/2/2 13/13/13 14/14/14 3/3/3
f 3/3/3 14/14/14 15/15/15 5/5/5
f 5/5/5 15/15/15 16/16/16 7/7/7
f 7/7/7 16/16/16 17/17/17 9/9/9
f 9/9/9 17/17/17 18/18/18 11/11/11
f 13/13/13 19/19/19 20/20/20 14/14/14
f 14/14/14 20/20/20 21/21/21 15/15/15
f 15/15/15 21/21/21 22/22/22 16/16/16
f 16/16/16 22/22/22 23/23/23 17/17/17
f 17/17/17 23/23/23 24/24/24 18/18/18
f 19/19/19 25/25/25 26/26/26 20/20/20
f 20/20/20 26/26/26 27/27/27 21/21/21
f 21/21/21 27/27/27 28/28/28 22/22/22
f 22/22/22 28/28/28 29/29/29 23/23/23
f 23/23/23 29/29/29 30/30/30 24/24/24
f 25/25/25 31/31/31 32/32/32 26/26/26
f 26/26/26 32/32/32 33/33/33 27/27/27
f 27/27/27 33/33/33 34/34/34 28/28/28
f 28/28/28 34/34/34 35/35/35 29/29/29
f 29/29/29 35/35/35 36/36/36 30/30/30
f 37/37/37 38/38/38 39/39/39 40/40/40
f 38/38/38 41/41/41 42/42/42 39/39/39
f 41/41/41 43/43/43 44/44/44 42/42/42
f 43/43/43 45/45/45 46/46/46 44/44/44
f 45/45/45 47/47/47 48/48/48 46/46/46
f 40/40/40 39/39/39 49/49/49 50/50/50
f 39/39/39 42/42/42 51/51/51 49/49/49
f 42/42/42 44/44/44 52/52/52 51/51/51
f 44/44/44 46/46/46 53/53/53 52/52/52
f 46/46/46 48/48/48 54/54/54 53/53/53
f 50/50/50 49/49/49 55/55/55 56/56/56
f 49/49/49 51/51/51 57/57/57 55/55/55
f 51/51/51 52/52/52 58/58/58 57/57/57
f 52/52/52 53/53/53 59/59/59 58/58/58
f 53/53/53 54/54/54 60/60/60 59/59/59
f 56/56/56 55/55/55 61/61/61 62/62/62
f 55/55/55 57/57/57 63/63/63 61/61/61
f 57/57/57 58/58/58 64/64/64 63/63/63
f 58/58/58 59/59/59 65/65/65 64/64/64
f 59/59/59 60/60/60 66/66/66 65/65/65
f 62/62/62 61/61/61 67/67/67 68/68/68
f 61/61/61 63/63/63 69/69/69 67/67/67
f 63/63/63 64/64/64 70/70/70 69/69/69
f 64/64/64 65/65/65 71/71/71 70/70/70
f 65/65/65 66/66/66 72/72/72 71/71/71
f 1/73/1 4/74/4 73/75/73 74/76/74
f 4/74/4 6/77/6 75/78/75 73/75/73
f 6/77/6 8/79/8 76/80/76 75/78/75
f 8/79/8 10/81/10 77/82/77 76/80/76
f 10/81/10 12/83/12 78/84/78 77/82/77
f 74/76/74 73/75/73 79/85/79 80/86/80
f 73/75/73 75/78/75 81/87/81 79/85/79
f 75/78/75 76/80/76 82/88/82 81/87/81
f 76/80/76 77/82/77 83/89/83 82/88/82
f 77/82/77 78/84/78 84/90/84 83/89/83
f 80/86/80 79/85/79 85/91/85 86/92/86
f 79/85/79 81/87/81 87/93/87 85/91/85
f 81/87/81 82/88/82 88/94/88 87/93/87
f 82/88/82 83/89/83 89/95/89 88/94/88
f 83/89/83 84/90/84 90/96/90 89/95/89
f 86/92/86 85/91/85 91/97/91 92/98/92
f 85/91/85 87/93/87 93/99/93 91/97/91
f 87/93/87 88/94/88 94/100/94 93/99/93
f 88/94/88 89/95/89 95/101/95 94/100/94
f 89/95/89 90/96/90 96/102/96 95/101/95
f 92/98/92 91/97/91 38/103/38 37/104/37
f 91/97/91 93/99/93 41/105/41 38/103/38
f 93/99/93 94/100/94 43/106/43 41/105/41
f 94/100/94 95/101/95 45/107/45 43/106/43
f 95/101/95 96/102/96 47/108/47 45/107/45
f 12/109/12 11/110/11 97/111/97 78/112/78
f 11/110/11 18/113/18 98/114/98 97/111/97
f 18/113/18 24/115/24 99/116/99 98/114/98
f 24/115/24 30/117/30 100/118/100 99/116/99
f 30/117/30 36/119/36 101/120/101 100/118/100
f 78/112/78 97/111/97 102/121/102 84/122/84
f 97/111/97 98/114/98 103/123/103 102/121/102
f 98/114/98 99/116/99 104/124/104 103/123/103
f 99/116/99 100/118/100 105/125/105 104/124/104
f 100/118/100 101/120/101 106/126/106 105/125/105
f 84/122/84 102/121/102 107/127/107 90/128/90
f 102/121/102 103/123/103 108/129/108 107/127/107
f 103/123/103 104/124/104 109/130/109 108/129/108
f 104/124/104 105/125/105 110/131/110 109/130/109
f 105/125/105 106/126/106 111/132/111 110/131/110
f 90/128/90 107/127/107 112/133/112 96/134/96
f 107/127/107 108/129/108 113/135/113 112/133/112
f 108/129/108 109/130/109 114/136/114 113/135/113
f 109/130/109 110/131/110 115/137/115 114/136/114
f 110/131/110 111/132/111 116/138/116 115/137/115
f 96/134/96 112/133/112 48/139/48 47/140/47
f 112/133/112 113/135/113 54/141/54 48/139/48
f 113/135/113 114/136/114 60/142/60 54/141/54
f 114/136/114 115/137/115 66/143/66 60/142/60
f 115/137/115 116/138/116 72/144/72 66/143/66
f 36/145/36 35/146/35 117/147/117 101/148/101
f 35/146/35 34/149/34 118/150/118 117/147/117
f 34/149/34 33/151/33 119/152/119 118/150/118
f 33/151/33 32/153/32 120/154/120 119/152/119
f 32/153/32 31/155/31 121/156/121 120/154/120
f 101/148/101 117/147/117 122/157/122 106/158/106
f 117/147/117 118/150/118 123/159/123 122/157/122
f 118/150/118 119/152/119 124/160/124 123/159/123
f 119/152/119 120/154/120 125/161/125 124/160/124
f 120/154/120 121/156/121 126/162/126 125/161/125
f 106/158/106 122/157/122 127/163/127 111/164/111
f 122/157/122 123/159/123 128/165/128 127/163/127
f 123/159/123 124/160/124 129/166/129 128/165/128
f 124/160/124 125/161/125 130/167/130 129/166/129
f 125/161/125 126/162/126 131/168/131 130/167/130
f 111/164/111 127/163/127 132/169/132 116/170/116
f 127/163/127 128/165/128 133/171/133 132/169/132
f 128/165/128 129/166/129 134/172/134 133/171/133
f 129/166/129 130/167/130 135/173/135 134/172/134
f 130/167/130 131/168/131 136/174/136 135/173/135
f 116/170/116 132/169/132 71/175/71 72/176/72
f 132/169/132 133/171/133 70/177/70 71/175/71
f 133/171/133 134/172/134 69/178/69 70/177/70
f 134/172/134 135/173/135 67/179/67 69/178/69
f 135/173/135 136/174/136 68/180/68 67/179/67
f 31/181/31 25/182/25 137/183/137 121/184/121
f 25/182/25 19/185/19 138/186/138 137/183/137
f 19/185/19 13/187/13 139/188/139 138/186/138
f 13/187/13 2/189/2 140/190/140 139/188/139
f 2/189/2 1/191/1 74/192/74 140/190/140
f 121/184/121 137/183/137 141/193/141 126/194/126
f 137/183/137 138/186/138 142/195/142 141/193/141
f 138/186/138 139/188/139 143/196/143 142/195/142
f 139/188/139 140/190/140 144/197/144 143/196/143
f 140/190/140 74/192/74 80/198/80 144/197/144
f 126/194/126 141/193/141 145/199/145 131/200/131
f 141/193/141 142/195/142 146/201/146 145/199/145
f 142/195/142 143/196/143 147/202/147 146/201/146
f 143/196/143 144/197/144 148/203/148 147/202/147
f 144/197/144 80/198/80 86/204/86 148/203/148
f 131/200/131 145/199/145 149/205/149 136/206/136
f 145/199/145 146/201/146 150/207/150 149/205/149
f 146/201/146 147/202/147 151/208/151 150/207/150
f 147/202/147 148/203/148 152/209/152 151/208/151
f 148/203/148 86/204/86 92/210/92 152/209/152
f 136/206/136 149/205/149 62/211/62 68/212/68
f 149/205/149 150/207/150 56/213/56 62/211/62
f 150/207/150 151/208/151 50/214/50 56/213/56
f 151/208/151 152/209/152 40/215/40 50/214/50
f 152/209/152 92/210/92 37/216/37 40/215/40
