# Blender v2.74 (sub 0) OBJ File: 'flower4.blend'
# www.blender.org
mtllib flower4.mtl
o Mesh1_Flower_Yellow_Model
v 0.000771 -0.993846 0.000000
v 0.000771 -0.148252 0.000000
v 0.000771 -0.148252 0.507559
v 0.000771 -1.172807 0.993102
vt -0.220875 0.095853
vt -0.121986 0.048989
vt -0.121986 0.000000
vt -0.203602 0.000000
vn -1.000000 -0.000000 -0.000000
g Mesh1_Flower_Yellow_Model_Mesh1_Flower_Yellow_Model_Green_leafs
usemtl Green_leafs
s 1
f 4/1/1 3/2/1 2/3/1 1/4/1
o Mesh3_Flower_Yellow_Model
v -0.118880 -0.148252 0.000000
v -0.118880 -0.028600 0.000000
v -0.118880 0.091051 0.000000
v 0.000771 0.091051 0.000000
v 0.120423 0.091051 0.000000
v 0.120423 -0.028600 0.000000
v 0.120423 -0.148252 0.000000
v 0.000771 -0.148252 0.000000
v 0.120423 -0.148252 1.328519
v -0.118880 -0.148252 1.328519
v -0.118880 0.091051 1.328519
v 0.120423 0.091051 1.328519
v 0.486601 -0.514430 1.328519
v 0.486601 0.457235 1.328519
v -0.485063 0.457235 1.328519
v -0.485063 -0.514430 1.328519
v 0.685794 0.656424 1.883756
v 0.685794 -0.713623 1.883756
v -0.684253 -0.713623 1.883756
v -0.684253 0.656424 1.883756
vt -0.098889 0.121986
vt -0.063546 0.157330
vt -0.157330 0.157330
vt -0.098889 0.098889
vt -0.063546 0.063546
vt -0.157330 0.063546
vt -0.063546 0.173822
vt -0.044320 0.230757
vt -0.176555 0.230757
vt -0.157330 0.173822
vt 0.063546 0.173822
vt 0.157330 0.173822
vt 0.176555 0.230757
vt 0.044320 0.230757
vt 0.176555 0.044320
vt 0.176555 0.176555
vt 0.044320 0.176555
vt 0.044320 0.044320
vt -0.044320 0.156173
vt -0.176555 0.156173
vt -0.157330 0.099238
vt -0.063546 0.099238
vt 0.157330 0.099238
vt 0.176555 0.156173
vt 0.044320 0.156173
vt 0.063546 0.099238
vt -0.121986 0.110438
vt -0.121986 0.121986
vt -0.110438 0.121986
vt -0.098889 0.110438
vt -0.110438 0.098889
vt -0.121986 0.098889
vt 0.121986 0.000000
vt 0.110438 0.000000
vt 0.098889 0.000000
vt 0.098889 0.128227
vt 0.121986 0.128227
vt -0.098889 0.128227
vt -0.121986 0.128227
vt -0.121986 0.000000
vt -0.110438 0.000000
vt -0.098889 0.000000
vn 0.000000 0.000000 -1.000000
vn 0.941300 0.000000 -0.337700
vn 0.000000 -0.941300 -0.337700
vn -0.000000 0.000000 1.000000
vn 0.000000 0.941300 -0.337700
vn -0.941300 0.000000 -0.337700
vn 0.000000 1.000000 -0.000000
vn -1.000000 0.000000 -0.000000
g Mesh3_Flower_Yellow_Model_Mesh3_Flower_Yellow_Model_Water
usemtl Water
s 1
f 16/5/2 18/6/2 17/7/2
f 15/8/2 19/9/2 16/5/2
f 19/9/2 15/8/2 20/10/2
f 18/11/3 21/12/3 22/13/3 17/14/3
f 20/15/4 17/16/4 22/17/4 23/18/4
f 23/19/5 22/20/5 21/21/5 24/22/5
f 24/23/6 21/24/6 18/25/6 19/26/6
f 20/27/7 23/28/7 24/29/7 19/30/7
g Mesh3_Flower_Yellow_Model_Mesh3_Flower_Yellow_Model_Green_leafs
usemtl Green_leafs
f 12/31/5 11/32/5 10/33/5 9/5/5 8/34/5 7/8/5 6/35/5 5/36/5
f 11/37/8 12/38/8 5/39/8 14/40/8 13/41/8
f 14/41/9 15/40/9 7/39/9 6/38/9 5/37/9
f 15/42/8 16/43/8 9/44/8 8/45/8 7/46/8
f 9/46/9 10/45/9 11/44/9 13/43/9 16/42/9
f 19/9/5 16/5/5 18/6/5
f 14/36/5 15/8/5 20/10/5
f 17/7/5 14/36/5 20/10/5
f 13/32/5 17/7/5 16/5/5
f 14/36/5 17/7/5 13/32/5
o Mesh4_Flower_Yellow_Model
v 0.000771 1.115607 0.993102
v 0.000771 0.091051 0.507559
v 0.000771 0.091051 0.000000
v 0.000771 0.936647 0.000000
vt -0.017273 0.000000
vt -0.098889 0.000000
vt -0.098889 0.048989
vt 0.000000 0.095853
vn -1.000000 0.000000 -0.000000
g Mesh4_Flower_Yellow_Model_Mesh4_Flower_Yellow_Model_Green_leafs
usemtl Green_leafs
s 1
f 28/47/10 27/48/10 26/49/10 25/50/10
o Mesh2_Flower_Yellow_Model
v -0.964476 -0.028600 0.000000
v -0.118880 -0.028600 0.000000
v -0.118880 -0.028600 0.507559
v -1.143436 -0.028600 0.993102
vt 0.000000 0.095853
vt 0.098889 0.048989
vt 0.098889 0.000000
vt 0.017273 0.000000
vn 0.000000 1.000000 0.000000
g Mesh2_Flower_Yellow_Model_Mesh2_Flower_Yellow_Model_Green_leafs
usemtl Green_leafs
s 1
f 32/51/11 31/52/11 30/53/11 29/54/11
o Mesh5_Flower_Yellow_Model
v 1.144979 -0.028600 0.993102
v 0.120423 -0.028600 0.507559
v 0.120423 -0.028600 0.000000
v 0.966017 -0.028600 0.000000
vt 0.203602 -0.000000
vt 0.121986 -0.000000
vt 0.121986 0.048989
vt 0.220875 0.095853
vn 0.000000 1.000000 0.000000
g Mesh5_Flower_Yellow_Model_Mesh5_Flower_Yellow_Model_Green_leafs
usemtl Green_leafs
s 1
f 36/55/12 35/56/12 34/57/12 33/58/12
