# Blender v2.74 (sub 0) OBJ File: 'flower3.blend'
# www.blender.org
mtllib flower3.mtl
o Mesh4_Flower_Tall_Yellow_Model
v -0.984712 0.035144 0.000000
v -0.113583 0.035144 0.000000
v -0.113583 0.035144 0.522886
v -1.169076 0.035144 1.023090
vt 0.000000 0.095853
vt 0.098889 0.048989
vt 0.098889 0.000000
vt 0.017273 0.000000
vn 0.000000 1.000000 -0.000000
g Mesh4_Flower_Tall_Yellow_Model_Mesh4_Flower_Tall_Yellow_Model_Green_leafs
usemtl Green_leafs
s 1
f 4/1/1 3/2/1 2/3/1 1/4/1
o Mesh1_Flower_Tall_Yellow_Model
v 0.132946 -0.088120 1.746574
v -0.113583 -0.088120 1.746574
v -0.113583 -0.088120 0.000000
v 0.009682 -0.088120 0.000000
v 0.132946 -0.088120 0.000000
v -0.113583 0.035144 0.000000
v -0.113583 0.158409 0.000000
v 0.009682 0.158409 0.000000
v 0.132946 0.158409 0.000000
v 0.132946 0.035144 0.000000
v 0.132946 0.158409 1.746574
v 0.391745 -0.346919 1.746575
v 0.391745 0.417207 1.746575
v -0.372381 0.417207 1.746574
v -0.113583 0.158409 1.746574
v -0.372381 -0.346919 1.746574
v 0.548388 -0.503562 2.619862
v -0.529030 -0.503562 2.619862
v 0.548388 0.573856 2.619862
v -0.529030 0.573856 2.619862
vt -0.098889 0.121986
vt -0.146233 0.146233
vt -0.121986 0.121986
vt -0.074642 0.146233
vt -0.098889 0.098889
vt -0.074642 0.074642
vt -0.121986 0.098889
vt 0.074642 0.186884
vt 0.146233 0.186884
vt 0.160909 0.270008
vt 0.059966 0.270008
vt 0.160909 0.059966
vt 0.160909 0.160909
vt 0.059966 0.160909
vt 0.059966 0.059966
vt 0.121986 0.000000
vt 0.110438 0.000000
vt 0.098889 0.000000
vt 0.098889 0.163636
vt 0.121986 0.163636
vt -0.110438 0.098889
vt -0.098889 0.110438
vt -0.110438 0.121986
vt -0.121986 0.110438
vt -0.146233 0.074642
vt -0.098889 0.163636
vt -0.121986 0.163636
vt -0.121986 0.000000
vt -0.110438 0.000000
vt -0.098889 0.000000
vt -0.074642 0.147887
vt -0.146233 0.147887
vt -0.160909 0.231011
vt -0.059966 0.231011
vt -0.146233 0.186884
vt -0.160909 0.270008
vt -0.059966 0.270008
vt -0.074642 0.186884
vt 0.074642 0.147887
vt 0.059966 0.231011
vt 0.160909 0.231011
vt 0.146233 0.147887
vn 0.000000 0.000000 -1.000000
vn 0.000000 -0.984300 -0.176600
vn 0.000000 0.000000 1.000000
vn 0.000000 1.000000 0.000000
vn -1.000000 0.000000 -0.000000
vn 0.000000 -0.984300 0.176600
vn -0.984300 0.000000 0.176600
vn 0.984300 0.000000 0.176600
g Mesh1_Flower_Tall_Yellow_Model_Mesh1_Flower_Tall_Yellow_Model_Light_Wood
usemtl Light_Wood
s 1
f 15/5/2 16/6/2 5/7/2
f 15/5/2 17/8/2 16/6/2
f 19/9/2 18/10/2 15/5/2
f 5/7/2 16/6/2 6/11/2
f 20/12/3 16/13/3 21/14/3 22/15/3
f 22/16/4 21/17/4 23/18/4 24/19/4
g Mesh1_Flower_Tall_Yellow_Model_Mesh1_Flower_Tall_Yellow_Model_Green_leafs
usemtl Green_leafs
f 9/20/5 8/21/5 7/22/5 6/23/5 5/24/5
f 7/11/2 10/25/2 11/9/2 12/26/2 13/5/2 14/27/2 9/7/2 8/28/2
f 18/10/4 15/5/4 17/8/4
f 20/29/4 19/9/4 18/10/4
f 6/11/4 19/9/4 20/29/4
f 6/24/6 19/23/6 11/22/6 10/21/6 7/20/6
f 19/30/5 15/31/5 13/32/5 12/33/5 11/34/5
f 13/34/6 14/33/6 9/32/6 5/31/6 15/30/6
f 16/6/4 6/11/4 20/29/4
f 18/35/7 17/36/7 23/37/7 24/38/7
f 16/39/8 21/40/8 23/41/8 17/42/8
f 18/43/9 24/44/9 22/45/9 20/46/9
o Mesh5_Flower_Tall_Yellow_Model
v 0.009682 1.213902 1.023090
v 0.009682 0.158409 0.522886
v 0.009682 0.158409 0.000000
v 0.009682 1.029538 0.000000
vt -0.017273 0.000000
vt -0.098889 0.000000
vt -0.098889 0.048989
vt 0.000000 0.095853
vn -1.000000 -0.000000 -0.000000
g Mesh5_Flower_Tall_Yellow_Model_Mesh5_Flower_Tall_Yellow_Model_Green_leafs
usemtl Green_leafs
s 1
f 28/47/10 27/48/10 26/49/10 25/50/10
o Mesh3_Flower_Tall_Yellow_Model
v 1.188440 0.035144 1.023090
v 0.132946 0.035144 0.522886
v 0.132946 0.035144 0.000000
v 1.004075 0.035144 0.000000
vt 0.203602 -0.000000
vt 0.121986 -0.000000
vt 0.121986 0.048989
vt 0.220875 0.095853
vn 0.000000 1.000000 0.000000
g Mesh3_Flower_Tall_Yellow_Model_Mesh3_Flower_Tall_Yellow_Model_Green_leafs
usemtl Green_leafs
s 1
f 32/51/11 31/52/11 30/53/11 29/54/11
o Mesh2_Flower_Tall_Yellow_Model
v 0.009682 -0.959248 0.000000
v 0.009682 -0.088120 0.000000
v 0.009682 -0.088120 0.522886
v 0.009682 -1.143614 1.023090
vt -0.220875 0.095853
vt -0.121986 0.048989
vt -0.121986 0.000000
vt -0.203602 0.000000
vn -1.000000 0.000000 -0.000000
g Mesh2_Flower_Tall_Yellow_Model_Mesh2_Flower_Tall_Yellow_Model_Green_leafs
usemtl Green_leafs
s 1
f 36/55/12 35/56/12 34/57/12 33/58/12
