# Blender v2.74 (sub 0) OBJ File: 'bigreenmushroom.blend'
# www.blender.org
mtllib mushroom3.mtl
o Cylinder.006
v 1.599167 1.603424 19.475555
v 2.379900 0.493458 19.475555
v 7.216653 1.983544 17.406187
v 4.636334 5.651875 17.406185
v -6.653626 -2.289493 17.406183
v -6.584953 2.194932 17.406183
v -8.880177 2.979746 14.327650
v -8.971839 -3.003646 14.327650
v 0.315119 2.042487 19.475555
v 0.392656 7.102960 17.406185
v -1.036160 -1.909374 19.475555
v -1.816873 -0.799408 19.475555
v -4.073327 -5.957823 17.406185
v -0.981742 1.642953 19.475555
v -3.893514 5.782514 17.406185
v 0.247888 -2.348436 19.475555
v 0.170371 -7.408909 17.406185
v -1.796104 0.557457 19.475555
v 1.544769 -1.948901 19.475555
v 4.456522 -6.088463 17.406185
v 2.359131 -0.863406 19.475555
v 7.147961 -2.500881 17.406187
v 5.852108 -8.072515 14.327631
v 9.443207 -3.285695 14.327654
v 9.534848 2.697697 14.327632
v 6.092032 7.592254 14.327653
v 0.429794 9.528380 14.327652
v -5.529024 -7.898201 14.327629
v -5.289085 7.766588 14.327651
v 0.133234 -9.834328 14.327630
v 2.611512 2.800526 -0.001952
v 2.734046 1.601754 10.828176
v 3.690004 0.070364 10.828177
v 3.842090 0.829164 -0.001952
v 3.563252 -1.730470 10.828177
v 3.678922 -1.488964 -0.001952
v 2.402215 -3.112861 10.828176
v 2.184333 -3.268501 -0.001952
v 0.650361 -3.548794 10.828176
v -0.070790 -3.829681 -0.001953
v -1.023154 -2.871779 10.828176
v -2.225075 -2.958153 -0.001953
v -1.979107 -1.340369 10.828176
v -3.455658 -0.986813 -0.001953
v -1.852381 0.460444 10.828176
v -3.292485 1.331336 -0.001953
v -0.691317 1.842857 10.828176
v -1.797896 3.110873 -0.001953
v 1.060531 2.278790 10.828176
v 0.435673 2.037327 19.380127
v 1.693642 1.528407 19.380127
v 0.457227 3.672053 -0.001953
v -1.753954 0.670480 19.380127
v -0.881176 1.709616 19.380127
v -1.130615 -1.834356 19.380127
v -1.849231 -0.683191 19.380127
v 1.444203 -2.015564 19.380127
v 0.127354 -2.343275 19.380127
v 2.412237 0.377243 19.380127
v 2.316981 -0.976450 19.380127
vt 0.390254 0.554131
vt 0.331292 0.323082
vt 0.383666 0.305956
vt 0.458246 0.525557
vt 0.432847 0.285562
vt 0.525809 0.493774
vt 0.479499 0.261790
vt 0.593033 0.459768
vt 0.524909 0.234372
vt 0.658640 0.423546
vt 0.569475 0.202564
vt 0.721723 0.384955
vt 0.613208 0.166337
vt 0.781581 0.341964
vt 0.105857 0.601174
vt 0.099759 0.356855
vt 0.158378 0.353881
vt 0.178545 0.602140
vt 0.217374 0.347228
vt 0.250791 0.594202
vt 0.275595 0.336893
vt 0.227999 0.150721
vt 0.270282 0.143343
vt 0.321295 0.577684
vt 0.236783 0.645647
vt 0.258327 0.715076
vt 0.234947 0.783909
vt 0.046483 0.643118
vt 0.175572 0.825852
vt 0.023102 0.711950
vt 0.102884 0.824886
vt 0.044645 0.781379
vt 0.143205 0.161570
vt 0.185640 0.156426
vt 0.461788 0.046324
vt 0.493488 0.016446
vt 0.391798 0.097776
vt 0.428221 0.073790
vt 0.312174 0.132765
vt 0.352965 0.117730
vt 0.100731 0.166334
vt 0.664907 0.697213
vt 0.657936 0.732090
vt 0.525373 0.744341
vt 0.547839 0.633143
vt 0.911619 0.746168
vt 0.890425 0.635710
vt 0.954482 0.601388
vt 0.984010 0.752966
vt 0.690416 0.672387
vt 0.629516 0.550992
vt 0.766025 0.764765
vt 0.779588 0.732050
vt 0.868059 0.849811
vt 0.747707 0.672256
vt 0.712852 0.665359
vt 0.699020 0.530163
vt 0.811477 0.555021
vt 0.736573 0.784467
vt 0.774286 0.911905
vt 0.772717 0.697323
vt 0.701117 0.784514
vt 0.661751 0.911528
vt 0.671582 0.764863
vt 0.568273 0.848695
vt 0.663367 0.728259
vt 0.703608 0.779585
vt 0.675149 0.760460
vt 0.737874 0.778331
vt 0.764857 0.757175
vt 0.672763 0.695283
vt 0.774253 0.724199
vt 0.699747 0.674127
vt 0.734012 0.672872
vt 0.762471 0.691998
vt 0.641150 0.981417
vt 0.512267 0.895469
vt 0.452581 0.752209
vt 0.482267 0.599217
vt 0.591714 0.486303
vt 0.924574 0.895623
vt 0.695883 0.456991
vt 0.846430 0.491358
vt 0.795909 0.981419
vn 0.847300 0.528900 0.049000
vn 0.997500 -0.070200 0.009100
vn 0.765700 -0.643100 -0.006200
vn 0.241500 -0.970400 0.009100
vn -0.374600 -0.925900 0.049000
vn -0.844200 -0.527000 0.097900
vn -0.988100 0.069500 0.137000
vn -0.756900 0.635700 0.151800
vn 0.374500 0.925700 0.053500
vn 0.373200 0.922600 0.097900
vn -0.239200 0.961300 0.137000
vn 0.000000 0.000000 -1.000000
vn -0.765700 0.643100 -0.007000
vn -0.847100 -0.528800 0.053500
vn 0.238800 -0.959400 0.149900
vn 0.986300 -0.069400 0.149900
vn 0.843400 0.526500 0.107100
vn -0.241500 0.970400 0.009800
vn -0.997500 0.070200 0.009800
vn -0.372900 -0.921700 0.107100
vn 0.755100 -0.634200 0.166000
vn 0.323100 0.227200 0.918700
vn -0.800100 0.012300 0.599700
vn 0.127800 0.373700 0.918700
vn -0.323100 -0.227200 0.918700
vn -0.116300 0.377500 0.918700
vn -0.127800 -0.373700 0.918700
vn -0.315900 0.237000 0.918700
vn 0.116300 -0.377500 0.918700
vn -0.394900 0.006000 0.918700
vn 0.315900 -0.237000 0.918700
vn 0.394900 -0.006000 0.918700
vn 0.000000 0.000000 1.000000
vn 0.640100 -0.480200 0.599700
vn 0.800100 -0.012300 0.599700
vn 0.654500 0.460400 0.599700
vn 0.258900 0.757200 0.599700
vn -0.654500 -0.460400 0.599700
vn -0.235600 0.764800 0.599700
vn -0.258900 -0.757200 0.599700
vn -0.640100 0.480200 0.599700
vn 0.235600 -0.764800 0.599700
g Cylinder.006_Cylinder.006_Mushroom
usemtl Mushroom
s off
f 31/1/1 32/2/1 33/3/1 34/4/1
f 34/4/2 33/3/2 35/5/2 36/6/2
f 36/6/3 35/5/3 37/7/3 38/8/3
f 38/8/4 37/7/4 39/9/4 40/10/4
f 40/10/5 39/9/5 41/11/5 42/12/5
f 42/12/6 41/11/6 43/13/6 44/14/6
f 44/15/7 43/16/7 45/17/7 46/18/7
f 46/18/8 45/17/8 47/19/8 48/20/8
f 32/2/9 49/21/9 50/22/9 51/23/9
f 52/24/10 49/21/10 32/2/10 31/1/10
f 48/20/11 47/19/11 49/21/11 52/24/11
f 46/18/12 48/25/12 52/26/12
f 44/15/12 46/18/12 52/26/12
f 31/27/12 44/15/12 52/26/12
f 31/27/12 42/28/12 44/15/12
f 31/27/12 34/29/12 42/28/12
f 34/29/12 40/30/12 42/28/12
f 34/29/12 36/31/12 40/30/12
f 36/31/12 38/32/12 40/30/12
f 47/19/13 45/17/13 53/33/13 54/34/13
f 43/13/14 41/11/14 55/35/14 56/36/14
f 39/9/15 37/7/15 57/37/15 58/38/15
f 35/5/16 33/3/16 59/39/16 60/40/16
f 33/3/17 32/2/17 51/23/17 59/39/17
f 49/21/18 47/19/18 54/34/18 50/22/18
f 45/17/19 43/16/19 56/41/19 53/33/19
f 41/11/20 39/9/20 58/38/20 55/35/20
f 37/7/21 35/5/21 60/40/21 57/37/21
g Cylinder.006_Cylinder.006_Material
usemtl Material
f 1/42/22 2/43/22 3/44/22 4/45/22
f 5/46/23 6/47/23 7/48/23 8/49/23
f 9/50/24 1/42/24 4/45/24 10/51/24
f 11/52/25 12/53/25 5/46/25 13/54/25
f 14/55/26 9/56/26 10/57/26 15/58/26
f 16/59/27 11/52/27 13/54/27 17/60/27
f 18/61/28 14/55/28 15/58/28 6/47/28
f 19/62/29 16/59/29 17/60/29 20/63/29
f 12/53/30 18/61/30 6/47/30 5/46/30
f 21/64/31 19/62/31 20/63/31 22/65/31
f 2/43/32 21/64/32 22/65/32 3/44/32
f 21/66/33 16/67/33 19/68/33
f 21/66/33 11/69/33 16/67/33
f 21/66/33 12/70/33 11/69/33
f 12/70/33 21/66/33 2/71/33
f 18/72/33 12/70/33 2/71/33
f 2/71/33 1/73/33 18/72/33
f 18/72/33 1/73/33 9/74/33
f 18/72/33 9/74/33 14/75/33
f 22/65/34 20/63/34 23/76/34 24/77/34
f 3/44/35 22/65/35 24/77/35 25/78/35
f 4/45/36 3/44/36 25/78/36 26/79/36
f 10/51/37 4/45/37 26/79/37 27/80/37
f 13/54/38 5/46/38 8/49/38 28/81/38
f 15/58/39 10/57/39 27/82/39 29/83/39
f 17/60/40 13/54/40 28/81/40 30/84/40
f 6/47/41 15/58/41 29/83/41 7/48/41
f 20/63/42 17/60/42 30/84/42 23/76/42
