# Blender v2.74 (sub 0) OBJ File: 'bigbluemushroom.blend'
# www.blender.org
mtllib mushroom1.mtl
o Cylinder.006
v 0.608898 -2.007771 14.607932
v -0.860783 -2.048168 14.607932
v -2.411280 -7.307627 13.051133
v 2.445953 -7.174132 13.051133
v 2.035089 7.774841 13.051133
v 6.043120 5.027839 13.051134
v 8.126016 6.630396 10.735115
v 2.778224 10.295638 10.735114
v 1.774148 -1.111252 14.607932
v 6.297049 -4.211147 13.051134
v -0.985090 2.475008 14.607932
v 0.484591 2.515381 14.607932
v -2.822121 7.641346 13.051133
v 2.189870 0.298968 14.607932
v 7.671042 0.449602 13.051134
v -2.150340 1.578465 14.607932
v -6.673240 4.678360 13.051132
v 1.697318 1.684212 14.607932
v -2.566062 0.168246 14.607932
v -8.047234 0.017611 13.051132
v -2.073510 -1.216999 14.607932
v -6.419311 -4.560626 13.051132
v -10.674304 -0.054589 10.735112
v -8.502206 -6.163183 10.735113
v -3.154415 -9.828425 10.735113
v 3.326410 -9.650295 10.735115
v 8.464816 -5.696867 10.735115
v -3.702601 10.117531 10.735113
v 10.298114 0.521803 10.735116
v -8.841007 6.164081 10.735112
v 1.083694 -3.638603 -0.045179
v -0.072095 -3.031507 8.102429
v -2.027224 -2.977774 8.102429
v -1.433118 -3.569427 -0.045180
v -3.577378 -1.785119 8.102428
v -3.428575 -2.034145 -0.045180
v -4.130444 0.090935 8.102428
v -4.140524 0.380861 -0.045180
v -3.475160 1.933764 8.102428
v -3.297005 2.753087 -0.045180
v -1.861856 3.039485 8.102429
v -1.220227 4.176483 -0.045180
v 0.093273 2.985753 8.102429
v 1.296584 4.107306 -0.045179
v 1.643427 1.793098 8.102429
v 3.292041 2.572001 -0.045179
v 2.196493 -0.082957 8.102429
v 4.003991 0.157018 -0.045179
v 1.541209 -1.925786 8.102429
v 1.697318 -1.216999 14.536143
v 0.484591 -2.048168 14.536143
v 3.160471 -2.215231 -0.045179
v 1.774148 1.578465 14.536143
v 2.189870 0.168246 14.536143
v -0.860783 2.515381 14.536143
v 0.608898 2.475008 14.536143
v -2.566062 0.298968 14.536143
v -2.073510 1.684212 14.536143
v -0.985090 -2.007771 14.536143
v -2.150340 -1.111252 14.536143
vt 0.390254 0.554131
vt 0.331292 0.323082
vt 0.383666 0.305956
vt 0.458246 0.525557
vt 0.432847 0.285562
vt 0.525809 0.493774
vt 0.479499 0.261790
vt 0.593033 0.459768
vt 0.524909 0.234372
vt 0.658640 0.423546
vt 0.569475 0.202564
vt 0.721723 0.384955
vt 0.613208 0.166337
vt 0.781581 0.341964
vt 0.105857 0.601174
vt 0.099759 0.356855
vt 0.158378 0.353881
vt 0.178545 0.602140
vt 0.217374 0.347228
vt 0.250791 0.594202
vt 0.275595 0.336893
vt 0.227999 0.150721
vt 0.270282 0.143343
vt 0.321295 0.577684
vt 0.236783 0.645647
vt 0.258327 0.715076
vt 0.234947 0.783909
vt 0.046483 0.643118
vt 0.175572 0.825852
vt 0.023102 0.711950
vt 0.102884 0.824886
vt 0.044645 0.781379
vt 0.143205 0.161570
vt 0.185640 0.156426
vt 0.461788 0.046324
vt 0.493488 0.016446
vt 0.391798 0.097776
vt 0.428221 0.073790
vt 0.312174 0.132765
vt 0.352965 0.117730
vt 0.100731 0.166334
vt 0.664907 0.697213
vt 0.657936 0.732090
vt 0.525373 0.744341
vt 0.547839 0.633143
vt 0.911619 0.746168
vt 0.890425 0.635710
vt 0.954482 0.601388
vt 0.984010 0.752966
vt 0.690416 0.672387
vt 0.629516 0.550992
vt 0.766025 0.764765
vt 0.779588 0.732050
vt 0.868059 0.849811
vt 0.747707 0.672256
vt 0.712852 0.665359
vt 0.699020 0.530163
vt 0.811477 0.555021
vt 0.736573 0.784467
vt 0.774286 0.911905
vt 0.772717 0.697323
vt 0.701117 0.784514
vt 0.661751 0.911528
vt 0.671582 0.764863
vt 0.568273 0.848695
vt 0.663367 0.728259
vt 0.703608 0.779585
vt 0.675149 0.760460
vt 0.737874 0.778331
vt 0.764857 0.757175
vt 0.672763 0.695283
vt 0.774253 0.724199
vt 0.699747 0.674127
vt 0.734012 0.672872
vt 0.762471 0.691998
vt 0.641150 0.981417
vt 0.512267 0.895469
vt 0.452581 0.752209
vt 0.482267 0.599217
vt 0.591714 0.486303
vt 0.924574 0.895623
vt 0.695883 0.456991
vt 0.846430 0.491358
vt 0.795909 0.981419
vn -0.027400 -0.997100 0.070400
vn -0.609700 -0.792500 0.013100
vn -0.959100 -0.282800 -0.008900
vn -0.942100 0.335000 0.013100
vn -0.563900 0.822800 0.070400
vn 0.027200 0.989700 0.140300
vn 0.598000 0.777300 0.195300
vn 0.936600 0.276100 0.215900
vn 0.563700 -0.822400 0.076900
vn 0.559800 -0.816700 0.140300
vn 0.924100 -0.328600 0.195300
vn 0.000000 0.000000 -1.000000
vn 0.959100 0.282800 -0.010100
vn 0.027400 0.996700 0.076900
vn -0.920500 0.327300 0.213200
vn -0.595800 -0.774300 0.213200
vn -0.027100 -0.987800 0.153300
vn 0.942100 -0.335000 0.014000
vn 0.609700 0.792500 0.014000
vn -0.558700 0.815100 0.153300
vn -0.932200 -0.274800 0.235600
vn 0.007900 -0.285900 0.958200
vn 0.384300 0.560600 0.733500
vn 0.174400 -0.226700 0.958200
vn -0.007900 0.285900 0.958200
vn 0.274400 -0.080900 0.958200
vn -0.174400 0.226700 0.958200
vn 0.269500 0.095800 0.958200
vn -0.274400 0.080900 0.958200
vn 0.161700 0.236000 0.958200
vn -0.269500 -0.095800 0.958200
vn -0.161700 -0.236000 0.958200
vn 0.000000 0.000000 1.000000
vn -0.640400 -0.227700 0.733500
vn -0.384300 -0.560600 0.733500
vn 0.018700 -0.679400 0.733500
vn 0.414500 -0.538700 0.733500
vn -0.018700 0.679400 0.733500
vn 0.651900 -0.192200 0.733500
vn -0.414500 0.538700 0.733500
vn 0.640400 0.227700 0.733500
vn -0.651900 0.192200 0.733500
g Cylinder.006_Cylinder.006_Mushroom
usemtl Mushroom
s off
f 31/1/1 32/2/1 33/3/1 34/4/1
f 34/4/2 33/3/2 35/5/2 36/6/2
f 36/6/3 35/5/3 37/7/3 38/8/3
f 38/8/4 37/7/4 39/9/4 40/10/4
f 40/10/5 39/9/5 41/11/5 42/12/5
f 42/12/6 41/11/6 43/13/6 44/14/6
f 44/15/7 43/16/7 45/17/7 46/18/7
f 46/18/8 45/17/8 47/19/8 48/20/8
f 32/2/9 49/21/9 50/22/9 51/23/9
f 52/24/10 49/21/10 32/2/10 31/1/10
f 48/20/11 47/19/11 49/21/11 52/24/11
f 46/18/12 48/25/12 52/26/12
f 44/15/12 46/18/12 52/26/12
f 31/27/12 44/15/12 52/26/12
f 31/27/12 42/28/12 44/15/12
f 31/27/12 34/29/12 42/28/12
f 34/29/12 40/30/12 42/28/12
f 34/29/12 36/31/12 40/30/12
f 36/31/12 38/32/12 40/30/12
f 47/19/13 45/17/13 53/33/13 54/34/13
f 43/13/14 41/11/14 55/35/14 56/36/14
f 39/9/15 37/7/15 57/37/15 58/38/15
f 35/5/16 33/3/16 59/39/16 60/40/16
f 33/3/17 32/2/17 51/23/17 59/39/17
f 49/21/18 47/19/18 54/34/18 50/22/18
f 45/17/19 43/16/19 56/41/19 53/33/19
f 41/11/20 39/9/20 58/38/20 55/35/20
f 37/7/21 35/5/21 60/40/21 57/37/21
g Cylinder.006_Cylinder.006_Material
usemtl Material
f 1/42/22 2/43/22 3/44/22 4/45/22
f 5/46/23 6/47/23 7/48/23 8/49/23
f 9/50/24 1/42/24 4/45/24 10/51/24
f 11/52/25 12/53/25 5/46/25 13/54/25
f 14/55/26 9/56/26 10/57/26 15/58/26
f 16/59/27 11/52/27 13/54/27 17/60/27
f 18/61/28 14/55/28 15/58/28 6/47/28
f 19/62/29 16/59/29 17/60/29 20/63/29
f 12/53/30 18/61/30 6/47/30 5/46/30
f 21/64/31 19/62/31 20/63/31 22/65/31
f 2/43/32 21/64/32 22/65/32 3/44/32
f 21/66/33 16/67/33 19/68/33
f 21/66/33 11/69/33 16/67/33
f 21/66/33 12/70/33 11/69/33
f 12/70/33 21/66/33 2/71/33
f 18/72/33 12/70/33 2/71/33
f 2/71/33 1/73/33 18/72/33
f 18/72/33 1/73/33 9/74/33
f 18/72/33 9/74/33 14/75/33
f 22/65/34 20/63/34 23/76/34 24/77/34
f 3/44/35 22/65/35 24/77/35 25/78/35
f 4/45/36 3/44/36 25/78/36 26/79/36
f 10/51/37 4/45/37 26/79/37 27/80/37
f 13/54/38 5/46/38 8/49/38 28/81/38
f 15/58/39 10/57/39 27/82/39 29/83/39
f 17/60/40 13/54/40 28/81/40 30/84/40
f 6/47/41 15/58/41 29/83/41 7/48/41
f 20/63/42 17/60/42 30/84/42 23/76/42
