# Blender v2.74 (sub 0) OBJ File: 'rock4.blend'
# www.blender.org
mtllib rock4.mtl
o Mesh1_Rock_4_Model
v 0.109542 3.734426 -4.223619
v -3.213750 2.759273 -4.223619
v -1.369011 1.378060 -0.700930
v -0.421089 1.656206 -0.700930
v 1.048212 -2.912157 -4.223619
v -3.213750 -1.694808 -4.223619
v 3.432833 0.411135 -4.223619
v 0.306373 -0.781754 -0.700930
v -1.369011 -0.303213 -0.700930
v 1.020974 0.214144 -0.700930
vt -0.218078 0.029686
vt 0.018777 0.029686
vt -0.075681 0.301629
vt -0.143241 0.301629
vt -0.454545 0.291466
vt -0.371294 0.000000
vt -0.066689 0.000000
vt 0.000000 0.227273
vt -0.227273 0.454545
vt 0.101975 -0.165624
vt 0.405097 -0.165624
vt 0.316301 0.106319
vt 0.197143 0.106319
vt -0.199386 -0.232794
vt 0.080342 -0.232794
vt -0.026763 0.039149
vt -0.110589 0.039149
vt -0.482118 -0.074553
vt -0.160706 -0.074553
vt -0.235543 0.197389
vt -0.375013 0.197389
vt 0.161147 0.126158
vt 0.276125 0.126158
vt 0.308852 0.240734
vt 0.240745 0.289604
vt 0.142125 0.190984
vt 0.066689 -0.000000
vt 0.371294 -0.000000
vt 0.276125 0.271943
vt 0.161147 0.271943
vn -0.249400 0.850000 0.463900
vn 0.000000 0.000000 -1.000000
vn -0.243300 -0.851800 0.463900
vn 0.719800 -0.516500 0.463900
vn 0.626400 0.626400 0.463900
vn -0.000000 -0.000000 1.000000
vn -0.885900 0.000000 0.463900
g Mesh1_Rock_4_Model_Mesh1_Rock_4_Model_Stone
usemtl Stone
s 1
f 1/1/1 2/2/1 3/3/1 4/4/1
f 5/5/2 6/6/2 2/7/2 1/8/2 7/9/2
f 6/10/3 5/11/3 8/12/3 9/13/3
f 5/14/4 7/15/4 10/16/4 8/17/4
f 7/18/5 1/19/5 4/20/5 10/21/5
f 3/22/6 9/23/6 8/24/6 10/25/6 4/26/6
f 2/27/7 6/28/7 9/29/7 3/30/7
