# Blender v2.74 (sub 0) OBJ File: 'rock.blend'
# www.blender.org
mtllib rock.mtl
o Mesh1_Rock_6_Model
v 1.312235 4.043482 -5.167025
v -3.333482 0.180260 -5.167026
v -0.509112 0.050665 -2.540034
v 1.397960 1.636525 -2.540034
v 4.392962 1.832498 -5.167024
v 2.890462 -2.389447 -5.167025
v 0.529740 -3.682961 -5.167025
v 2.117006 1.120476 -2.540034
v 1.338520 -1.067012 -2.540034
v 0.866952 -1.325400 -2.540034
vt -0.210143 0.102604
vt 0.145314 0.102604
vt 0.022432 0.293525
vt -0.123483 0.293525
vt -0.130072 0.454545
vt -0.378448 0.366153
vt -0.454545 0.227273
vt -0.227273 0.000000
vt 0.000000 0.273307
vt -0.233779 -0.277047
vt 0.029857 -0.277047
vt -0.054499 -0.086126
vt -0.191095 -0.086126
vt -0.445125 -0.093566
vt -0.222042 -0.093566
vt -0.308701 0.097354
vt -0.360769 0.097354
vt 0.171960 0.320651
vt 0.141601 0.278350
vt 0.234897 0.166157
vt 0.315850 0.247111
vt 0.300650 0.274853
vt 0.160706 -0.094359
vt 0.482118 -0.094359
vt 0.398074 0.096561
vt 0.283588 0.096561
vt -0.019107 -0.298180
vt 0.139255 -0.298180
vt 0.096571 -0.107259
vt 0.064938 -0.107259
vn -0.517600 0.622400 0.587200
vn 0.000000 0.000000 -1.000000
vn 0.762600 -0.271400 0.587200
vn 0.472000 0.657600 0.587200
vn 0.000000 0.000000 1.000000
vn -0.572400 -0.572400 0.587200
vn 0.389000 -0.709900 0.587200
g Mesh1_Rock_6_Model_Mesh1_Rock_6_Model_Stone.006
usemtl Stone.006
s 1
f 1/1/1 2/2/1 3/3/1 4/4/1
f 5/5/2 6/6/2 7/7/2 2/8/2 1/9/2
f 6/10/3 5/11/3 8/12/3 9/13/3
f 5/14/4 1/15/4 4/16/4 8/17/4
f 8/18/5 4/19/5 3/20/5 10/21/5 9/22/5
f 2/23/6 7/24/6 10/25/6 3/26/6
f 7/27/7 6/28/7 9/29/7 10/30/7
o Mesh1_Rock_5_Model
v -0.156594 -1.637625 -1.381067
v 2.347624 0.256242 -1.381067
v 2.347624 0.881945 -1.381067
v 0.057777 1.998146 -1.381067
v -0.407324 1.998146 -1.381068
v -1.288146 -1.050833 -1.381068
v -1.288146 -1.637625 -1.381068
v 0.529739 -3.682961 -5.167025
v 4.392962 -0.761315 -5.167024
v 0.529739 4.043482 -5.167025
v 4.392962 2.160331 -5.167024
v -3.333482 -3.682961 -5.167026
v -3.333482 -0.761315 -5.167026
v -1.945427 4.043482 -5.167025
vt 0.334218 0.186896
vt 0.222803 0.334218
vt 0.185993 0.334218
vt 0.120327 0.199507
vt 0.120327 0.172145
vt 0.299698 0.120327
vt 0.334218 0.120327
vt -0.092910 -0.237483
vt 0.192039 -0.237483
vt 0.132176 0.015670
vt -0.052533 0.015670
vt 0.000000 0.227273
vt -0.110785 0.454545
vt -0.282665 0.454545
vt -0.454545 0.227273
vt -0.454545 0.000000
vt -0.282665 0.000000
vt 0.000000 0.081659
vt -0.457130 -0.047334
vt -0.204294 -0.047334
vt -0.232059 0.205818
vt -0.381923 0.205818
vt -0.227273 -0.000000
vt -0.081659 -0.000000
vt -0.172145 0.253152
vt -0.199507 0.253152
vt -0.022664 0.037289
vt 0.271561 0.037289
vt 0.254528 0.290441
vt 0.067823 0.290441
vt 0.282665 0.000000
vt 0.454545 0.000000
vt 0.334218 0.253152
vt 0.299698 0.253152
vt 0.000000 -0.216052
vt 0.227273 -0.216052
vt 0.186896 0.037100
vt 0.120327 0.037100
vt -0.282665 -0.216052
vt -0.110785 -0.216052
vt -0.185993 0.037100
vt -0.222803 0.037100
vn -0.000000 0.000000 1.000000
vn 0.530700 -0.701700 0.475300
vn 0.000000 0.000000 -1.000000
vn 0.385500 0.790900 0.475300
vn -0.000000 0.879800 0.475300
vn -0.845300 0.244200 0.475300
vn -0.869200 0.123000 0.479000
vn -0.879800 0.000000 0.475300
vn -0.000000 -0.879800 0.475300
vn 0.879800 0.000000 0.475300
g Mesh1_Rock_5_Model_Mesh1_Rock_5_Model_Stone.005
usemtl Stone.005
s 1
f 11/31/8 12/32/8 13/33/8 14/34/8 15/35/8 16/36/8 17/37/8
f 18/38/9 19/39/9 12/40/9 11/41/9
f 20/42/10 21/43/10 19/44/10 18/45/10 22/46/10 23/47/10 24/48/10
f 21/49/11 20/50/11 14/51/11 13/52/11
f 20/53/12 24/54/12 15/55/12 14/56/12
f 24/57/13 23/58/14 16/59/14 15/60/13
f 23/61/14 22/62/15 17/63/15 16/64/14
f 22/65/16 18/66/16 11/67/16 17/68/16
f 19/69/17 21/70/17 13/71/17 12/72/17
o Mesh1_Rock_4_Model
v 0.529739 4.043482 -5.167025
v -3.333482 2.909897 -5.167026
v -1.189032 1.304280 -1.072011
v -0.087102 1.627616 -1.072010
v 1.620914 -3.682961 -5.167025
v -3.333482 -2.267833 -5.167026
v 4.392962 0.180260 -5.167024
v 0.758549 -1.206435 -1.072010
v -1.189032 -0.650147 -1.072011
v 1.589250 -0.048736 -1.072010
vt -0.218078 0.029686
vt 0.018777 0.029686
vt -0.075681 0.301629
vt -0.143241 0.301629
vt -0.454545 0.291466
vt -0.371294 0.000000
vt -0.066689 0.000000
vt 0.000000 0.227273
vt -0.227273 0.454545
vt 0.101975 -0.165624
vt 0.405097 -0.165624
vt 0.316301 0.106319
vt 0.197143 0.106319
vt -0.199386 -0.232794
vt 0.080342 -0.232794
vt -0.026763 0.039149
vt -0.110589 0.039149
vt -0.482118 -0.074553
vt -0.160706 -0.074553
vt -0.235543 0.197389
vt -0.375013 0.197389
vt 0.161147 0.126158
vt 0.276125 0.126158
vt 0.308852 0.240734
vt 0.240745 0.289604
vt 0.142125 0.190984
vt 0.066689 -0.000000
vt 0.371294 -0.000000
vt 0.276125 0.271943
vt 0.161147 0.271943
vn -0.249400 0.850000 0.463900
vn 0.000000 0.000000 -1.000000
vn -0.243300 -0.851800 0.463900
vn 0.719800 -0.516500 0.463900
vn 0.626400 0.626400 0.463900
vn -0.000000 0.000000 1.000000
vn -0.885900 0.000000 0.463900
g Mesh1_Rock_4_Model_Mesh1_Rock_4_Model_Stone.004
usemtl Stone.004
s 1
f 25/73/18 26/74/18 27/75/18 28/76/18
f 29/77/19 30/78/19 26/79/19 25/80/19 31/81/19
f 30/82/20 29/83/20 32/84/20 33/85/20
f 29/86/21 31/87/21 34/88/21 32/89/21
f 31/90/22 25/91/22 28/92/22 34/93/22
f 27/94/23 33/95/23 32/96/23 34/97/23 28/98/23
f 26/99/24 30/100/24 33/101/24 27/102/24
o Mesh1_Rock_3_Model
v -0.054752 2.007781 0.086957
v 1.461022 1.132653 0.086957
v 1.816571 1.337929 -2.694563
v -0.054751 2.418333 -2.694563
v 1.461022 -0.617603 0.086957
v -1.570517 1.132653 0.086957
v -1.570517 -0.617603 0.086957
v -0.054752 -1.492731 0.086957
v 1.816571 -0.822880 -2.694563
v -0.054751 -1.903283 -2.694563
v 2.568237 -1.256858 -2.694562
v 2.568237 1.771907 -2.694562
v -0.054751 3.286290 -2.694563
v 3.223989 2.150503 -5.167025
v -0.054751 4.043482 -5.167025
v 3.223989 -1.635454 -5.167025
v -0.054751 -3.528433 -5.167025
v -0.054751 -2.771241 -2.694563
v -3.333482 2.150503 -5.167026
v -3.333482 -1.635454 -5.167026
v -2.677736 1.771907 -2.694563
v -1.926065 1.337929 -2.694563
v -2.677736 -1.256858 -2.694563
v -1.926065 -0.822880 -2.694563
vt -0.226925 0.307518
vt -0.329893 0.307518
vt -0.341969 0.142550
vt -0.214849 0.142550
vt 0.274211 0.282060
vt 0.171244 0.282060
vt 0.119760 0.192887
vt 0.171244 0.103715
vt 0.274211 0.103715
vt 0.325695 0.192887
vt -0.159167 0.105865
vt -0.171244 0.270833
vt -0.274211 0.270833
vt -0.286287 0.105865
vt -0.007878 0.093636
vt 0.119242 0.093636
vt 0.107166 0.258604
vt 0.004198 0.258604
vt 0.311818 0.347197
vt 0.286287 0.302977
vt 0.349847 0.192887
vt 0.159167 0.302977
vt 0.133636 0.347197
vt 0.095607 0.192887
vt 0.044546 0.192887
vt -0.189318 0.125759
vt -0.367500 0.125759
vt -0.389773 -0.024724
vt -0.167045 -0.024724
vt -0.111364 -0.098896
vt -0.133636 0.051587
vt -0.311818 0.051587
vt -0.334091 -0.098896
vt -0.055682 -0.123620
vt 0.167045 -0.123620
vt 0.144773 0.026863
vt -0.033409 0.026863
vt -0.111364 0.000000
vt 0.000000 0.192887
vt -0.111364 0.385775
vt -0.334091 0.385775
vt -0.445455 0.192887
vt -0.334091 0.000000
vt 0.033409 0.175207
vt -0.144773 0.175207
vt -0.167045 0.024724
vt 0.055682 0.024724
vt 0.133636 0.038578
vt 0.159167 0.082798
vt 0.311818 0.038578
vt 0.334091 0.000000
vt 0.311818 0.150483
vt 0.133636 0.150483
vt 0.111364 0.000000
vt 0.167045 -0.074172
vt 0.389773 -0.074172
vt 0.367500 0.076311
vt 0.189318 0.076311
vt 0.400909 0.192887
vt 0.286287 0.082798
vt 0.286287 0.154779
vt 0.274211 0.319747
vt 0.171244 0.319747
vt 0.159167 0.154779
vt 0.214849 0.118093
vt 0.341969 0.118093
vt 0.329893 0.283061
vt 0.226925 0.283061
vt -0.004198 0.331975
vt -0.107166 0.331975
vt -0.119242 0.167007
vt 0.007878 0.167007
vn 0.496000 0.859000 0.126800
vn -0.000000 0.000000 1.000000
vn 0.991900 0.000000 0.126800
vn 0.496000 -0.859000 0.126800
vn 0.483300 0.837100 0.256400
vn 0.966600 0.000000 0.256400
vn 0.483300 -0.837100 0.256400
vn 0.000000 0.000000 -1.000000
vn -0.483300 0.837100 0.256400
vn -0.966600 0.000000 0.256400
vn -0.483300 -0.837100 0.256400
vn -0.991900 0.000000 0.126800
vn -0.496000 -0.859000 0.126800
vn -0.496000 0.859000 0.126800
g Mesh1_Rock_3_Model_Mesh1_Rock_3_Model_Stone.003
usemtl Stone.003
s 1
f 35/103/25 36/104/25 37/105/25 38/106/25
f 39/107/26 36/108/26 35/109/26 40/110/26 41/111/26 42/112/26
f 37/113/27 36/114/27 39/115/27 43/116/27
f 44/117/28 43/118/28 39/119/28 42/120/28
f 45/121/26 43/122/26 44/123/26
f 45/121/26 37/124/26 43/122/26
f 46/125/26 37/124/26 45/121/26
f 46/125/26 38/126/26 37/124/26
f 38/126/26 46/125/26 47/127/26
f 47/128/29 46/129/29 48/130/29 49/131/29
f 48/132/30 46/133/30 45/134/30 50/135/30
f 51/136/31 50/137/31 45/138/31 52/139/31
f 53/140/32 49/141/32 48/142/32 50/143/32 51/144/32 54/145/32
f 55/146/33 47/147/33 49/148/33 53/149/33
f 55/150/26 38/126/26 47/127/26
f 38/126/26 55/150/26 56/151/26
f 56/151/26 55/150/26 57/152/26
f 54/153/34 57/154/34 55/155/34 53/156/34
f 54/157/35 51/158/35 52/159/35 57/160/35
f 44/123/26 57/152/26 52/161/26
f 58/162/26 57/152/26 44/123/26
f 56/151/26 57/152/26 58/162/26
f 58/163/36 41/164/36 40/165/36 56/166/36
f 58/167/37 44/168/37 42/169/37 41/170/37
f 40/171/38 35/172/38 38/173/38 56/174/38
f 45/121/26 44/123/26 52/161/26
