# Blender v2.74 (sub 0) OBJ File: 'rock5.blend'
# www.blender.org
mtllib rock5.mtl
o Mesh1_Rock_6_Model
v 1.776575 6.267869 -4.319728
v -5.470425 0.241508 -4.319729
v -1.064602 0.039349 -0.221803
v 1.910299 2.513181 -0.221803
v 6.582295 2.818886 -4.319727
v 4.238499 -3.767057 -4.319727
v 0.555935 -5.784852 -4.319728
v 3.031961 1.708180 -0.221803
v 1.817577 -1.704150 -0.221803
v 1.081964 -2.107217 -0.221803
vt -0.210143 0.102604
vt 0.145314 0.102604
vt 0.022432 0.293525
vt -0.123483 0.293525
vt -0.130072 0.454545
vt -0.378448 0.366153
vt -0.454545 0.227273
vt -0.227273 0.000000
vt 0.000000 0.273307
vt -0.233779 -0.277047
vt 0.029857 -0.277047
vt -0.054499 -0.086126
vt -0.191095 -0.086126
vt -0.445125 -0.093566
vt -0.222042 -0.093566
vt -0.308701 0.097354
vt -0.360769 0.097354
vt 0.171960 0.320651
vt 0.141601 0.278350
vt 0.234897 0.166157
vt 0.315850 0.247111
vt 0.300650 0.274853
vt 0.160706 -0.094359
vt 0.482118 -0.094359
vt 0.398074 0.096561
vt 0.283588 0.096561
vt -0.019107 -0.298180
vt 0.139255 -0.298180
vt 0.096571 -0.107259
vt 0.064938 -0.107259
vn -0.517600 0.622400 0.587200
vn 0.000000 -0.000000 -1.000000
vn 0.762600 -0.271400 0.587200
vn 0.472000 0.657600 0.587200
vn -0.000000 -0.000000 1.000000
vn -0.572400 -0.572400 0.587200
vn 0.389000 -0.709900 0.587200
g Mesh1_Rock_6_Model_Mesh1_Rock_6_Model_Stone
usemtl Stone
s 1
f 1/1/1 2/2/1 3/3/1 4/4/1
f 5/5/2 6/6/2 7/7/2 2/8/2 1/9/2
f 6/10/3 5/11/3 8/12/3 9/13/3
f 5/14/4 1/15/4 4/16/4 8/17/4
f 8/18/5 4/19/5 3/20/5 10/21/5 9/22/5
f 2/23/6 7/24/6 10/25/6 3/26/6
f 7/27/7 6/28/7 9/29/7 10/30/7
