# Blender v2.74 (sub 0) OBJ File: 'rock_small.blend'
# www.blender.org
mtllib rock2.mtl
o Mesh1_Rock_1_Model
v 0.923435 -0.892057 -0.668694
v -1.599309 -2.348566 -0.668695
v -1.599309 -5.261582 -0.668695
v 0.923435 -6.718090 -0.668694
v 3.446180 -5.261582 -0.668694
v 3.446180 -2.348566 -0.668694
v 0.923436 0.746514 -5.606010
v -3.018355 -1.529280 -5.606010
v 4.865226 -1.529280 -5.606009
v 4.865226 -6.080867 -5.606009
v 0.923436 -8.356661 -5.606010
v -3.018355 -6.080867 -5.606010
vt 0.096546 0.232252
vt 0.182364 0.083611
vt 0.354000 0.083611
vt 0.439818 0.232252
vt 0.354000 0.380894
vt 0.182364 0.380894
vt 0.018773 0.334764
vt -0.152864 0.334764
vt -0.201136 0.032077
vt 0.067046 0.032077
vt -0.249409 0.270609
vt -0.421045 0.270609
vt -0.469318 -0.032077
vt -0.201136 -0.032077
vt -0.134091 -0.128310
vt -0.182364 0.174376
vt -0.354000 0.174376
vt -0.402273 -0.128310
vt -0.067046 -0.160387
vt 0.201136 -0.160387
vt 0.152864 0.142299
vt -0.018773 0.142299
vt -0.134091 0.000000
vt 0.000000 0.232252
vt -0.134091 0.464505
vt -0.402273 0.464505
vt -0.536364 0.232252
vt -0.402273 0.000000
vt 0.201136 -0.096232
vt 0.469318 -0.096232
vt 0.421045 0.206454
vt 0.249409 0.206454
vt 0.402273 0.000000
vt 0.354000 0.302686
vt 0.182364 0.302686
vt 0.134091 0.000000
vn -0.000000 0.000000 1.000000
vn -0.480500 0.832300 0.276200
vn 0.480500 0.832300 0.276200
vn 0.961100 0.000000 0.276200
vn 0.480500 -0.832300 0.276200
vn 0.000000 0.000000 -1.000000
vn -0.480500 -0.832300 0.276200
vn -0.961100 0.000000 0.276200
g Mesh1_Rock_1_Model_Mesh1_Rock_1_Model_Stone
usemtl Stone
s 1
f 1/1/1 2/2/1 3/3/1 4/4/1 5/5/1 6/6/1
f 2/7/2 1/8/2 7/9/2 8/10/2
f 1/11/3 6/12/3 9/13/3 7/14/3
f 9/15/4 6/16/4 5/17/4 10/18/4
f 11/19/5 10/20/5 5/21/5 4/22/5
f 8/23/6 7/24/6 9/25/6 10/26/6 11/27/6 12/28/6
f 12/29/7 11/30/7 4/31/7 3/32/7
f 12/33/8 3/34/8 2/35/8 8/36/8
